<?xml version="1.0"?>
<svg xmlns="http://www.w3.org/2000/svg" xmlns:xlink="http://www.w3.org/1999/xlink" xmlns:svgjs="http://svgjs.com/svgjs" version="1.1" width="512" height="512" x="0" y="0" viewBox="0 0 128 128" style="enable-background:new 0 0 512 512" xml:space="preserve" class=""><g><linearGradient xmlns="http://www.w3.org/2000/svg" id="a" gradientUnits="userSpaceOnUse" x1="115.644" x2="12.356" y1="115.641" y2="12.353"><stop stop-opacity="1" stop-color="#ffb655" offset="0"/><stop stop-opacity="1" stop-color="#e28d6e" offset="0"/><stop stop-opacity="1" stop-color="#ff3753" offset="1"/></linearGradient><path xmlns="http://www.w3.org/2000/svg" d="m100.5 0h-73a6.758 6.758 0 0 0 -6.75 6.75v114.494a6.758 6.758 0 0 0 6.75 6.75h73a6.758 6.758 0 0 0 6.75-6.75v-114.494a6.758 6.758 0 0 0 -6.75-6.75zm3.25 121.244a3.254 3.254 0 0 1 -3.25 3.25h-73a3.254 3.254 0 0 1 -3.25-3.25v-114.494a3.254 3.254 0 0 1 3.25-3.25h73a3.254 3.254 0 0 1 3.25 3.25zm-4.5-111.494v90.244a1.75 1.75 0 0 1 -1.75 1.75h-67a1.75 1.75 0 0 1 -1.75-1.75v-11.869a1.75 1.75 0 0 1 3.5 0v10.119h63.5v-86.744h-63.5v44.25a1.75 1.75 0 0 1 -3.5 0v-46a1.75 1.75 0 0 1 1.75-1.75h67a1.75 1.75 0 0 1 1.75 1.75zm-70.5 65.625v-6.875a1.75 1.75 0 0 1 3.5 0v6.875a1.75 1.75 0 0 1 -3.5 0zm24.875 37.747a3.376 3.376 0 0 0 3.375 3.372h14a1.75 1.75 0 1 1 0 3.5h-14a6.872 6.872 0 0 1 0-13.744h14a1.75 1.75 0 0 1 0 3.5h-14a3.376 3.376 0 0 0 -3.375 3.372zm41.622 0a1.75 1.75 0 0 1 -1.75 1.75h-8.747a1.75 1.75 0 0 1 0-3.5h8.75a1.75 1.75 0 0 1 1.747 1.75zm-50.247 0a1.75 1.75 0 0 1 -1.75 1.75h-8.75a1.75 1.75 0 0 1 0-3.5h8.75a1.75 1.75 0 0 1 1.75 1.75z" fill="url(#a)" data-original="url(#a)" style="" class=""/></g></svg>
