<?xml version="1.0"?>
<svg xmlns="http://www.w3.org/2000/svg" xmlns:xlink="http://www.w3.org/1999/xlink" xmlns:svgjs="http://svgjs.com/svgjs" version="1.1" width="512" height="512" x="0" y="0" viewBox="0 0 512 512" style="enable-background:new 0 0 512 512" xml:space="preserve" class=""><g><linearGradient xmlns="http://www.w3.org/2000/svg" id="SVGID_1_" gradientUnits="userSpaceOnUse" x1="256" x2="256" y1="512" y2="0"><stop stop-opacity="1" stop-color="#009efd" offset="0"/><stop stop-opacity="1" stop-color="#ff3753" offset="0"/><stop stop-opacity="1" stop-color="#ffc400" offset="0"/><stop stop-opacity="1" stop-color="#e8b200" offset="0"/><stop stop-opacity="1" stop-color="#ffc400" offset="0.3552123552123552"/><stop stop-opacity="1" stop-color="#ffc400" offset="0.4980694980694981"/><stop stop-opacity="1" stop-color="#ffc400" offset="0.5212355212355212"/><stop stop-opacity="1" stop-color="#ffc400" offset="0.5521235521235521"/><stop stop-opacity="1" stop-color="#ffc400" offset="0.555984555984556"/><stop stop-opacity="1" stop-color="#ffc400" offset="0.5868725868725869"/><stop stop-opacity="1" stop-color="#ffc400" offset="0.5868725868725869"/><stop stop-opacity="1" stop-color="#ffc400" offset="0.6023166023166023"/><stop stop-opacity="1" stop-color="#ffc400" offset="0.6061776061776062"/><stop stop-opacity="1" stop-color="#ffc400" offset="0.637065637065637"/><stop stop-opacity="1" stop-color="#ffc400" offset="0.6525096525096525"/><stop stop-opacity="1" stop-color="#ffc400" offset="0.667953667953668"/><stop stop-opacity="1" stop-color="#ffc400" offset="0.7065637065637066"/><stop stop-opacity="1" stop-color="#ffc400" offset="0.7644787644787645"/><stop stop-opacity="1" stop-color="#ffc400" offset="0.7760617760617761"/><stop stop-opacity="1" stop-color="#ffc400" offset="0.7799227799227799"/><stop stop-opacity="1" stop-color="#ee1d3a" offset="0.7837837837837838"/><stop stop-opacity="1" stop-color="#ffc400" offset="0.7837837837837838"/><stop stop-opacity="1" stop-color="#ffc400" offset="0.7837837837837838"/><stop stop-opacity="1" stop-color="#ffc400" offset="0.7876447876447876"/><stop stop-opacity="1" stop-color="#ffc400" offset="0.7876447876447876"/><stop stop-opacity="1" stop-color="#ffc400" offset="0.7876447876447876"/><stop stop-opacity="1" stop-color="#ffc400" offset="0.7876447876447876"/><stop stop-opacity="1" stop-color="#ffc400" offset="0.7876447876447876"/><stop stop-opacity="1" stop-color="#ffc400" offset="0.806949806949807"/><stop stop-opacity="1" stop-color="#ffc400" offset="0.9845559845559846"/><stop stop-opacity="1" stop-color="#ffc400" offset="1"/><stop stop-opacity="1" stop-color="#ffc400" offset="1"/><stop stop-opacity="1" stop-color="#ff3753" offset="1"/></linearGradient><g xmlns="http://www.w3.org/2000/svg"><g><path d="m196 116h-40v80h40zm160 0h-40v80h40zm-100-116c-143.551 0-256 112.448-256 256s112.449 256 256 256 256-112.448 256-256-112.449-256-256-256zm0 472c-121.122 0-216-94.879-216-216s94.878-216 216-216 216 94.879 216 216-94.878 216-216 216zm140-236v20c0 77.196-62.804 140-140 140s-140-62.804-140-140v-20h-40v20c0 99.252 80.748 180 180 180s180-80.748 180-180v-20z" fill="url(#SVGID_1_)" data-original="url(#SVGID_1_)" style=""/></g></g></g></svg>
